<svg id="Layer_1" data-name="Layer 1" xmlns="http://www.w3.org/2000/svg" viewBox="0 0 326.13 370.68"><defs><style>.cls-1,.cls-12,.cls-2{fill:none;}.cls-1{stroke:#ddd;}.cls-3{fill:#a8a8a8;}.cls-4{fill:#f58518;}.cls-5,.cls-7,.cls-9{isolation:isolate;}.cls-5{font-size:10px;font-family:HelveticaNeueLTStd-Roman, Helvetica Neue LT Std;}.cls-6{letter-spacing:-0.06em;}.cls-7{font-size:11px;}.cls-7,.cls-9{font-family:HelveticaNeueLTStd-Bd, Helvetica Neue LT Std;font-weight:700;}.cls-8{letter-spacing:-0.09em;}.cls-9{font-size:13px;}.cls-10{letter-spacing:-0.02em;}.cls-11{letter-spacing:-0.05em;}.cls-12{stroke:#888;}.cls-13{fill:#713813;}.cls-14{fill:#fff;}</style></defs><title>south_end_occupancy_infographic</title><path class="cls-1" d="M38.5,27.5h140v300H38.5Z" transform="translate(-1.37 -4.21)"/><path class="cls-2" d="M38.5,27.5Z" transform="translate(-1.37 -4.21)"/><line class="cls-1" x1="37.13" y1="323.29" x2="177.13" y2="323.29"/><line class="cls-1" x1="37.13" y1="293.29" x2="177.13" y2="293.29"/><line class="cls-1" x1="37.13" y1="263.29" x2="177.13" y2="263.29"/><line class="cls-1" x1="37.13" y1="233.29" x2="177.13" y2="233.29"/><line class="cls-1" x1="37.13" y1="203.29" x2="177.13" y2="203.29"/><line class="cls-1" x1="37.13" y1="173.29" x2="177.13" y2="173.29"/><line class="cls-1" x1="37.13" y1="143.29" x2="177.13" y2="143.29"/><line class="cls-1" x1="37.13" y1="113.29" x2="177.13" y2="113.29"/><line class="cls-1" x1="37.13" y1="83.29" x2="177.13" y2="83.29"/><line class="cls-1" x1="37.13" y1="53.29" x2="177.13" y2="53.29"/><line class="cls-1" x1="37.13" y1="23.29" x2="177.13" y2="23.29"/><path class="cls-3" d="M39,27H57V58.27H39Z" transform="translate(-1.37 -4.21)"/><path class="cls-4" d="M39,58.27H57V327H39Z" transform="translate(-1.37 -4.21)"/><path class="cls-3" d="M59,27H77V54.63H59Z" transform="translate(-1.37 -4.21)"/><path class="cls-4" d="M59,54.63H77V327H59Z" transform="translate(-1.37 -4.21)"/><path class="cls-3" d="M79,27H97V63.67H79Z" transform="translate(-1.37 -4.21)"/><path class="cls-4" d="M79,63.67H97V327H79Z" transform="translate(-1.37 -4.21)"/><path class="cls-3" d="M99,27h18V70.63H99Z" transform="translate(-1.37 -4.21)"/><path class="cls-4" d="M99,70.63h18V327H99Z" transform="translate(-1.37 -4.21)"/><path class="cls-3" d="M119,27h18V94.16H119Z" transform="translate(-1.37 -4.21)"/><path class="cls-4" d="M119,94.16h18V327H119Z" transform="translate(-1.37 -4.21)"/><path class="cls-3" d="M139,27h18v89.26H139Z" transform="translate(-1.37 -4.21)"/><path class="cls-4" d="M139,116.26h18V327H139Z" transform="translate(-1.37 -4.21)"/><path class="cls-3" d="M159,27h18V136.45H159Z" transform="translate(-1.37 -4.21)"/><path class="cls-4" d="M159,136.45h18V327H159Z" transform="translate(-1.37 -4.21)"/><path class="cls-2" d="M224.5,334.75h103v40h-103Z" transform="translate(-1.37 -4.21)"/><path class="cls-2" d="M224.5,350.75Z" transform="translate(-1.37 -4.21)"/><path class="cls-2" d="M224.5,350.75h93v11h-93Z" transform="translate(-1.37 -4.21)"/><path class="cls-3" d="M225.5,351.75h10v10h-10Z" transform="translate(-1.37 -4.21)"/><text class="cls-5" transform="translate(239.13 355.54)">Owne<tspan class="cls-6" x="26.11" y="0">r</tspan><tspan x="28.89" y="0">-occupied</tspan></text><path class="cls-2" d="M224.5,363.75h93v11h-93Z" transform="translate(-1.37 -4.21)"/><path class="cls-4" d="M225.5,364.75h10v10h-10Z" transform="translate(-1.37 -4.21)"/><text class="cls-5" transform="translate(239.13 368.54)">Rente<tspan class="cls-6" x="26.3" y="0">r</tspan><tspan x="29.08" y="0">-occupied</tspan></text><text class="cls-7" transform="translate(223.13 339.54)"><tspan class="cls-8">T</tspan><tspan x="5.71" y="0">ype of Occupancy</tspan></text><text class="cls-9" transform="translate(5.33 10.79)">Dec<tspan class="cls-10" x="24.56" y="0">r</tspan><tspan x="29.38" y="0">easing Rente</tspan><tspan class="cls-11" x="110.5" y="0">r</tspan><tspan x="114.84" y="0">-Occupied South End Dwellings</tspan></text><path class="cls-2" d="M38.5,327.5Z" transform="translate(-1.37 -4.21)"/><line class="cls-12" x1="46.13" y1="323.29" x2="46.13" y2="328.29"/><line class="cls-12" x1="66.13" y1="323.29" x2="66.13" y2="328.29"/><line class="cls-12" x1="86.13" y1="323.29" x2="86.13" y2="328.29"/><line class="cls-12" x1="106.13" y1="323.29" x2="106.13" y2="328.29"/><line class="cls-12" x1="126.13" y1="323.29" x2="126.13" y2="328.29"/><line class="cls-12" x1="146.13" y1="323.29" x2="146.13" y2="328.29"/><line class="cls-12" x1="166.13" y1="323.29" x2="166.13" y2="328.29"/><text class="cls-5" transform="translate(49.13 352.53) rotate(-90)">1950</text><text class="cls-5" transform="translate(69.13 352.53) rotate(-90)">1960</text><text class="cls-5" transform="translate(89.13 352.53) rotate(-90)">1970</text><text class="cls-5" transform="translate(109.13 352.53) rotate(-90)">1980</text><text class="cls-5" transform="translate(129.13 352.53) rotate(-90)">1990</text><text class="cls-5" transform="translate(149.13 352.53) rotate(-90)">2000</text><text class="cls-5" transform="translate(169.13 352.53) rotate(-90)">2010</text><line class="cls-12" x1="37.13" y1="323.29" x2="177.13" y2="323.29"/><text class="cls-7" transform="translate(87.07 367.29)">Decade</text><path class="cls-2" d="M38.5,27.5Z" transform="translate(-1.37 -4.21)"/><line class="cls-12" x1="37.13" y1="323.29" x2="32.13" y2="323.29"/><line class="cls-12" x1="37.13" y1="293.29" x2="32.13" y2="293.29"/><line class="cls-12" x1="37.13" y1="263.29" x2="32.13" y2="263.29"/><line class="cls-12" x1="37.13" y1="233.29" x2="32.13" y2="233.29"/><line class="cls-12" x1="37.13" y1="203.29" x2="32.13" y2="203.29"/><line class="cls-12" x1="37.13" y1="173.29" x2="32.13" y2="173.29"/><line class="cls-12" x1="37.13" y1="143.29" x2="32.13" y2="143.29"/><line class="cls-12" x1="37.13" y1="113.29" x2="32.13" y2="113.29"/><line class="cls-12" x1="37.13" y1="83.29" x2="32.13" y2="83.29"/><line class="cls-12" x1="37.13" y1="53.29" x2="32.13" y2="53.29"/><line class="cls-12" x1="37.13" y1="23.29" x2="32.13" y2="23.29"/><text class="cls-5" transform="translate(16.23 326.29)">0.0</text><text class="cls-5" transform="translate(16.23 296.29)">0.1</text><text class="cls-5" transform="translate(16.23 266.29)">0.2</text><text class="cls-5" transform="translate(16.23 236.29)">0.3</text><text class="cls-5" transform="translate(16.23 206.29)">0.4</text><text class="cls-5" transform="translate(16.23 176.29)">0.5</text><text class="cls-5" transform="translate(16.23 146.29)">0.6</text><text class="cls-5" transform="translate(16.23 116.29)">0.7</text><text class="cls-5" transform="translate(16.23 86.29)">0.8</text><text class="cls-5" transform="translate(16.23 56.29)">0.9</text><text class="cls-5" transform="translate(16.23 26.29)">1.0</text><line class="cls-12" x1="37.13" y1="323.29" x2="37.13" y2="23.29"/><text class="cls-7" transform="translate(9.13 216.17) rotate(-90)">Occupancy Split</text><g id="layer1"><rect id="rect4142" class="cls-4" x="204.48" y="30.36" width="116.73" height="293.68"/></g><g id="layer3"><rect id="rect4320" class="cls-13" x="209.2" y="124.49" width="107.3" height="2.1"/><rect id="rect4171" class="cls-13" x="209.2" y="215.29" width="107.3" height="2.1"/><rect id="rect4322" class="cls-14" x="295.4" y="100.53" width="16.31" height="23.48"/><rect id="rect4312" class="cls-14" x="295.4" y="191.33" width="16.31" height="23.48"/><rect id="rect4324" class="cls-14" x="254.32" y="100.53" width="16.31" height="23.48"/><rect id="rect4175" class="cls-14" x="254.32" y="191.33" width="16.31" height="23.48"/><rect id="rect4326" class="cls-14" x="213.28" y="100.53" width="16.31" height="23.48"/><rect id="rect4177" class="cls-14" x="213.28" y="191.33" width="16.31" height="23.48"/><rect id="rect4328" class="cls-14" x="274.88" y="100.53" width="16.31" height="23.48"/><rect id="rect4314" class="cls-14" x="274.88" y="191.33" width="16.31" height="23.48"/><rect id="rect4330" class="cls-14" x="233.8" y="100.53" width="16.31" height="23.48"/><rect id="rect4179" class="cls-14" x="233.8" y="191.33" width="16.31" height="23.48"/><rect id="rect4332" class="cls-13" x="209.2" y="154.95" width="107.3" height="2.1"/><rect id="rect4181" class="cls-13" x="209.2" y="245.75" width="107.3" height="2.1"/><rect id="rect4334" class="cls-14" x="295.4" y="130.98" width="16.31" height="23.48"/><rect id="rect4316" class="cls-14" x="295.4" y="221.79" width="16.31" height="23.48"/><rect id="rect4336" class="cls-14" x="254.32" y="130.98" width="16.31" height="23.48"/><rect id="rect4185" class="cls-14" x="254.32" y="221.79" width="16.31" height="23.48"/><rect id="rect4338" class="cls-14" x="213.28" y="130.98" width="16.31" height="23.48"/><rect id="rect4187" class="cls-14" x="213.28" y="221.79" width="16.31" height="23.48"/><rect id="rect4340" class="cls-14" x="274.88" y="130.98" width="16.31" height="23.48"/><rect id="rect4318" class="cls-14" x="274.88" y="221.79" width="16.31" height="23.48"/><rect id="rect4342" class="cls-14" x="233.8" y="130.98" width="16.31" height="23.48"/><rect id="rect4189" class="cls-14" x="233.8" y="221.79" width="16.31" height="23.48"/><rect id="rect4344" class="cls-13" x="209.2" y="94.79" width="107.3" height="2.1"/><rect id="rect4139" class="cls-13" x="209.2" y="185.6" width="107.3" height="2.1"/><rect id="rect4346" class="cls-14" x="295.62" y="70.83" width="16.31" height="23.48"/><rect id="rect4308" class="cls-14" x="295.62" y="161.63" width="16.31" height="23.48"/><rect id="rect4348" class="cls-14" x="254.32" y="70.83" width="16.31" height="23.48"/><rect id="rect4149" class="cls-14" x="254.32" y="161.63" width="16.31" height="23.48"/><rect id="rect4350" class="cls-14" x="213.28" y="70.83" width="16.31" height="23.48"/><rect id="rect4147" class="cls-14" x="213.28" y="161.63" width="16.31" height="23.48"/><rect id="rect4352" class="cls-14" x="275.11" y="70.83" width="16.31" height="23.48"/><rect id="rect4310" class="cls-14" x="275.11" y="161.63" width="16.31" height="23.48"/><rect id="rect4354" class="cls-14" x="233.8" y="70.83" width="16.31" height="23.48"/><rect id="rect4149-2" class="cls-14" x="233.8" y="161.63" width="16.31" height="23.48"/><rect id="rect4234" class="cls-14" x="244.46" y="268.61" width="36.78" height="54.37"/></g><g id="layer6"><rect id="rect4376" class="cls-4" x="204.75" y="105.93" width="116.19" height="2.13"/><rect id="rect4378" class="cls-4" x="204.75" y="136.32" width="116.19" height="2.13"/><rect id="rect4380" class="cls-4" x="204.75" y="167.76" width="116.19" height="2.13"/><rect id="rect4382" class="cls-4" x="204.75" y="196.55" width="116.19" height="2.13"/><rect id="rect4384" class="cls-4" x="204.75" y="227.46" width="116.19" height="2.13"/><rect id="rect4374" class="cls-4" x="204.75" y="75.87" width="116.19" height="2.13"/></g><g id="layer7"><rect id="rect4239" class="cls-4" x="261.78" y="261.68" width="2.13" height="61.83"/></g><g id="layer8"><rect id="rect4372" x="240.2" y="259.97" width="45.31" height="8"/><rect id="rect4237" x="204.48" y="23.05" width="116.73" height="6.93"/></g></svg>